<svg width="68" height="68" viewBox="0 0 68 68" fill="none" xmlns="http://www.w3.org/2000/svg">
<path d="M59.5 34C59.5 34.5636 59.2761 35.1041 58.8776 35.5026C58.4791 35.9011 57.9386 36.125 57.375 36.125H36.125V57.375C36.125 57.9386 35.9011 58.4791 35.5026 58.8776C35.1041 59.2761 34.5636 59.5 34 59.5C33.4364 59.5 32.8959 59.2761 32.4974 58.8776C32.0989 58.4791 31.875 57.9386 31.875 57.375V36.125H10.625C10.0614 36.125 9.52091 35.9011 9.1224 35.5026C8.72388 35.1041 8.5 34.5636 8.5 34C8.5 33.4364 8.72388 32.8959 9.1224 32.4974C9.52091 32.0989 10.0614 31.875 10.625 31.875H31.875V10.625C31.875 10.0614 32.0989 9.52091 32.4974 9.1224C32.8959 8.72388 33.4364 8.5 34 8.5C34.5636 8.5 35.1041 8.72388 35.5026 9.1224C35.9011 9.52091 36.125 10.0614 36.125 10.625V31.875H57.375C57.9386 31.875 58.4791 32.0989 58.8776 32.4974C59.2761 32.8959 59.5 33.4364 59.5 34Z" fill="#0A84FF"/>
</svg>
