<svg width="60" height="60" viewBox="0 0 60 60" fill="none" xmlns="http://www.w3.org/2000/svg">
<path d="M52.5 52.5L37.5 37.5M7.5 25C7.5 27.2981 7.95265 29.5738 8.83211 31.697C9.71157 33.8202 11.0006 35.7493 12.6256 37.3744C14.2507 38.9994 16.1798 40.2884 18.303 41.1679C20.4262 42.0474 22.7019 42.5 25 42.5C27.2981 42.5 29.5738 42.0474 31.697 41.1679C33.8202 40.2884 35.7493 38.9994 37.3744 37.3744C38.9994 35.7493 40.2884 33.8202 41.1679 31.697C42.0474 29.5738 42.5 27.2981 42.5 25C42.5 22.7019 42.0474 20.4262 41.1679 18.303C40.2884 16.1798 38.9994 14.2507 37.3744 12.6256C35.7493 11.0006 33.8202 9.71157 31.697 8.83211C29.5738 7.95265 27.2981 7.5 25 7.5C22.7019 7.5 20.4262 7.95265 18.303 8.83211C16.1798 9.71157 14.2507 11.0006 12.6256 12.6256C11.0006 14.2507 9.71157 16.1798 8.83211 18.303C7.95265 20.4262 7.5 22.7019 7.5 25Z" stroke="#98989F" stroke-width="5" stroke-linecap="round" stroke-linejoin="round"/>
</svg>
